<?xml version="1.0" encoding="us-ascii" standalone="no"?><svg xmlns="http://www.w3.org/2000/svg" xmlns:xlink="http://www.w3.org/1999/xlink" contentStyleType="text/css" height="1045px" preserveAspectRatio="none" style="width:501px;height:1045px;background:#FFFFFF;" version="1.1" viewBox="0 0 501 1045" width="501px" zoomAndPan="magnify"><defs/><g><text fill="#000000" font-family="Verdana" font-size="22" font-weight="bold" lengthAdjust="spacing" textLength="397" x="50.5" y="37.1182">PrintTrace Processing Pipeline</text><ellipse cx="272" cy="62.7373" fill="#FFFFFF" rx="10" ry="10" style="stroke:#000000;stroke-width:1.0;"/><rect fill="#FFFFFF" height="49.168" rx="12.5" ry="12.5" style="stroke:#000000;stroke-width:1.0;" width="122" x="211" y="92.7373"/><text fill="#000000" font-family="Verdana" font-size="12" lengthAdjust="spacing" textLength="16" x="221" y="114.8018">&#128247;</text><text fill="#000000" font-family="Verdana" font-size="12" font-weight="bold" lengthAdjust="spacing" textLength="80" x="241" y="114.8018">Load Image</text><text fill="#000000" font-family="Verdana" font-size="12" lengthAdjust="spacing" textLength="102" x="221" y="129.3857">Read input photo</text><rect fill="#FFFFFF" height="49.168" rx="12.5" ry="12.5" style="stroke:#000000;stroke-width:1.0;" width="217" x="163.5" y="161.9053"/><text fill="#000000" font-family="Verdana" font-size="12" lengthAdjust="spacing" textLength="16" x="173.5" y="183.9697">&#128294;</text><text fill="#000000" font-family="Verdana" font-size="12" font-weight="bold" lengthAdjust="spacing" textLength="127" x="193.5" y="183.9697">Normalize Lighting</text><text fill="#000000" font-family="Verdana" font-size="12" lengthAdjust="spacing" textLength="197" x="173.5" y="198.5537">Apply CLAHE to even out lighting</text><rect fill="#FFFFFF" height="63.752" rx="12.5" ry="12.5" style="stroke:#000000;stroke-width:1.0;" width="225" x="159.5" y="231.0732"/><text fill="#000000" font-family="Verdana" font-size="12" lengthAdjust="spacing" textLength="16" x="169.5" y="253.1377">&#11036;</text><text fill="#000000" font-family="Verdana" font-size="12" font-weight="bold" lengthAdjust="spacing" textLength="105" x="189.5" y="253.1377">Detect Lightbox</text><text fill="#000000" font-family="Verdana" font-size="12" lengthAdjust="spacing" textLength="205" x="169.5" y="267.7217">Find bright white square boundary</text><text fill="#000000" font-family="Verdana" font-size="12" lengthAdjust="spacing" textLength="166" x="169.5" y="282.3057">using intensity thresholding</text><rect fill="#FFFFFF" height="63.752" rx="12.5" ry="12.5" style="stroke:#000000;stroke-width:1.0;" width="240" x="152" y="314.8252"/><text fill="#000000" font-family="Verdana" font-size="12" lengthAdjust="spacing" textLength="16" x="162" y="336.8896">&#128208;</text><text fill="#000000" font-family="Verdana" font-size="12" font-weight="bold" lengthAdjust="spacing" textLength="152" x="182" y="336.8896">Perspective Correction</text><text fill="#000000" font-family="Verdana" font-size="12" lengthAdjust="spacing" textLength="220" x="162" y="351.4736">Warp image to remove camera angle</text><text fill="#000000" font-family="Verdana" font-size="12" lengthAdjust="spacing" textLength="180" x="162" y="366.0576">using 4-corner transformation</text><rect fill="#FFFFFF" height="63.752" rx="12.5" ry="12.5" style="stroke:#000000;stroke-width:1.0;" width="240" x="152" y="398.5771"/><text fill="#000000" font-family="Verdana" font-size="12" lengthAdjust="spacing" textLength="16" x="162" y="420.6416">&#127919;</text><text fill="#000000" font-family="Verdana" font-size="12" font-weight="bold" lengthAdjust="spacing" textLength="111" x="182" y="420.6416">Object Detection</text><text fill="#000000" font-family="Verdana" font-size="12" lengthAdjust="spacing" textLength="220" x="162" y="435.2256">Find object using binary thresholding</text><text fill="#000000" font-family="Verdana" font-size="12" lengthAdjust="spacing" textLength="205" x="162" y="449.8096">(dark object on white background)</text><rect fill="#FFFFFF" height="63.752" rx="12.5" ry="12.5" style="stroke:#000000;stroke-width:1.0;" width="255" x="144.5" y="482.3291"/><text fill="#000000" font-family="Verdana" font-size="12" lengthAdjust="spacing" textLength="16" x="154.5" y="504.3936">&#10024;</text><text fill="#000000" font-family="Verdana" font-size="12" font-weight="bold" lengthAdjust="spacing" textLength="129" x="174.5" y="504.3936">Detail Preservation</text><text fill="#000000" font-family="Verdana" font-size="12" lengthAdjust="spacing" textLength="166" x="154.5" y="518.9775">Keep original contour points</text><text fill="#000000" font-family="Verdana" font-size="12" lengthAdjust="spacing" textLength="235" x="154.5" y="533.5615">(no approximation for maximum detail)</text><polygon fill="#FFFFFF" points="211,566.0811,333,566.0811,345,578.0811,333,590.0811,211,590.0811,199,578.0811,211,566.0811" style="stroke:#000000;stroke-width:1.0;"/><text fill="#000000" font-family="Verdana" font-size="12" lengthAdjust="spacing" textLength="122" x="211" y="582.8535">Smoothing enabled?</text><text fill="#000000" font-family="Verdana" font-size="12" lengthAdjust="spacing" textLength="20" x="179" y="575.5615">yes</text><text fill="#000000" font-family="Verdana" font-size="12" lengthAdjust="spacing" textLength="15" x="345" y="575.5615">no</text><rect fill="#FFFFFF" height="63.752" rx="12.5" ry="12.5" style="stroke:#000000;stroke-width:1.0;" width="181" x="98.25" y="600.0811"/><text fill="#000000" font-family="Verdana" font-size="12" lengthAdjust="spacing" textLength="16" x="108.25" y="622.1455">&#129690;</text><text fill="#000000" font-family="Verdana" font-size="12" font-weight="bold" lengthAdjust="spacing" textLength="73" x="128.25" y="622.1455">Smoothing</text><text fill="#000000" font-family="Verdana" font-size="12" lengthAdjust="spacing" textLength="161" x="108.25" y="636.7295">Remove small details using</text><text fill="#000000" font-family="Verdana" font-size="12" lengthAdjust="spacing" textLength="148" x="108.25" y="651.3135">morphological operations</text><rect fill="#FFFFFF" height="34.584" rx="12.5" ry="12.5" style="stroke:#000000;stroke-width:1.0;" width="112" x="299.25" y="600.0811"/><text fill="#000000" font-family="Verdana" font-size="12" lengthAdjust="spacing" textLength="92" x="309.25" y="622.1455">Skip smoothing</text><polygon fill="#FFFFFF" points="272,669.833,284,681.833,272,693.833,260,681.833,272,669.833" style="stroke:#000000;stroke-width:1.0;"/><polygon fill="#FFFFFF" points="227,713.833,317,713.833,329,725.833,317,737.833,227,737.833,215,725.833,227,713.833" style="stroke:#000000;stroke-width:1.0;"/><text fill="#000000" font-family="Verdana" font-size="12" lengthAdjust="spacing" textLength="90" x="227" y="730.6055">Tolerance &gt; 0?</text><text fill="#000000" font-family="Verdana" font-size="12" lengthAdjust="spacing" textLength="20" x="195" y="723.3135">yes</text><text fill="#000000" font-family="Verdana" font-size="12" lengthAdjust="spacing" textLength="15" x="329" y="723.3135">no</text><rect fill="#FFFFFF" height="63.752" rx="12.5" ry="12.5" style="stroke:#000000;stroke-width:1.0;" width="186" x="96.5" y="747.833"/><text fill="#000000" font-family="Verdana" font-size="12" lengthAdjust="spacing" textLength="16" x="106.5" y="769.8975">&#128207;</text><text fill="#000000" font-family="Verdana" font-size="12" font-weight="bold" lengthAdjust="spacing" textLength="95" x="126.5" y="769.8975">Add Tolerance</text><text fill="#000000" font-family="Verdana" font-size="12" lengthAdjust="spacing" textLength="161" x="106.5" y="784.4814">Expand outline by specified</text><text fill="#000000" font-family="Verdana" font-size="12" lengthAdjust="spacing" textLength="166" x="106.5" y="799.0654">amount for fitting clearance</text><rect fill="#FFFFFF" height="34.584" rx="12.5" ry="12.5" style="stroke:#000000;stroke-width:1.0;" width="104" x="302.5" y="747.833"/><text fill="#000000" font-family="Verdana" font-size="12" lengthAdjust="spacing" textLength="84" x="312.5" y="769.8975">Skip tolerance</text><polygon fill="#FFFFFF" points="272,817.585,284,829.585,272,841.585,260,829.585,272,817.585" style="stroke:#000000;stroke-width:1.0;"/><rect fill="#FFFFFF" height="78.3359" rx="12.5" ry="12.5" style="stroke:#000000;stroke-width:1.0;" width="173" x="185.5" y="861.585"/><text fill="#000000" font-family="Verdana" font-size="12" lengthAdjust="spacing" textLength="16" x="195.5" y="883.6494">&#128190;</text><text fill="#000000" font-family="Verdana" font-size="12" font-weight="bold" lengthAdjust="spacing" textLength="91" x="215.5" y="883.6494">Export to DXF</text><text fill="#000000" font-family="Verdana" font-size="12" lengthAdjust="spacing" textLength="144" x="195.5" y="898.2334">Save as CAD-compatible</text><text fill="#000000" font-family="Verdana" font-size="12" lengthAdjust="spacing" textLength="151" x="195.5" y="912.8174">vector file with real-world</text><text fill="#000000" font-family="Verdana" font-size="12" lengthAdjust="spacing" textLength="153" x="195.5" y="927.4014">coordinates in millimeters</text><path d="M15,959.9209 L15,1028.2568 L251,1028.2568 L251,969.9209 L241,959.9209 L15,959.9209 " fill="#FFFFFF" style="stroke:#000000;stroke-width:1.0;"/><path d="M241,959.9209 L241,969.9209 L251,969.9209 L241,959.9209 " fill="#FFFFFF" style="stroke:#000000;stroke-width:1.0;"/><text fill="#000000" font-family="Verdana" font-size="12" font-weight="bold" lengthAdjust="spacing" textLength="140" x="21" y="976.9854">3D Printing Features</text><text fill="#000000" font-family="Verdana" font-size="12" lengthAdjust="spacing" textLength="215" x="21" y="991.5693">&#8226; Smoothing removes print artifacts</text><text fill="#000000" font-family="Verdana" font-size="12" lengthAdjust="spacing" textLength="198" x="21" y="1006.1533">&#8226; Tolerance adds fitting clearance</text><text fill="#000000" font-family="Verdana" font-size="12" lengthAdjust="spacing" textLength="162" x="21" y="1020.7373">&#8226; Real-world scale accuracy</text><path d="M293,967.2129 L293,1020.9648 L484,1020.9648 L484,977.2129 L474,967.2129 L293,967.2129 " fill="#FFFFFF" style="stroke:#000000;stroke-width:1.0;"/><path d="M474,967.2129 L474,977.2129 L484,977.2129 L474,967.2129 " fill="#FFFFFF" style="stroke:#000000;stroke-width:1.0;"/><text fill="#000000" font-family="Verdana" font-size="12" font-weight="bold" lengthAdjust="spacing" textLength="114" x="299" y="984.2773">Debug Mode (-d)</text><text fill="#000000" font-family="Verdana" font-size="12" lengthAdjust="spacing" textLength="161" x="299" y="998.8613">Saves intermediate images</text><text fill="#000000" font-family="Verdana" font-size="12" lengthAdjust="spacing" textLength="170" x="299" y="1013.4453">at each step for visualization</text><ellipse cx="272" cy="994.0889" fill="none" rx="11" ry="11" style="stroke:#000000;stroke-width:1.0;"/><ellipse cx="272" cy="994.0889" fill="#FFFFFF" rx="6" ry="6" style="stroke:#000000;stroke-width:1.0;"/><line style="stroke:#000000;stroke-width:1.0;" x1="272" x2="272" y1="72.7373" y2="92.7373"/><polygon fill="#000000" points="268,82.7373,272,92.7373,276,82.7373,272,86.7373" style="stroke:#000000;stroke-width:1.0;"/><line style="stroke:#000000;stroke-width:1.0;" x1="272" x2="272" y1="141.9053" y2="161.9053"/><polygon fill="#000000" points="268,151.9053,272,161.9053,276,151.9053,272,155.9053" style="stroke:#000000;stroke-width:1.0;"/><line style="stroke:#000000;stroke-width:1.0;" x1="272" x2="272" y1="211.0732" y2="231.0732"/><polygon fill="#000000" points="268,221.0732,272,231.0732,276,221.0732,272,225.0732" style="stroke:#000000;stroke-width:1.0;"/><line style="stroke:#000000;stroke-width:1.0;" x1="272" x2="272" y1="294.8252" y2="314.8252"/><polygon fill="#000000" points="268,304.8252,272,314.8252,276,304.8252,272,308.8252" style="stroke:#000000;stroke-width:1.0;"/><line style="stroke:#000000;stroke-width:1.0;" x1="272" x2="272" y1="378.5771" y2="398.5771"/><polygon fill="#000000" points="268,388.5771,272,398.5771,276,388.5771,272,392.5771" style="stroke:#000000;stroke-width:1.0;"/><line style="stroke:#000000;stroke-width:1.0;" x1="272" x2="272" y1="462.3291" y2="482.3291"/><polygon fill="#000000" points="268,472.3291,272,482.3291,276,472.3291,272,476.3291" style="stroke:#000000;stroke-width:1.0;"/><line style="stroke:#000000;stroke-width:1.0;" x1="199" x2="188.75" y1="578.0811" y2="578.0811"/><line style="stroke:#000000;stroke-width:1.0;" x1="188.75" x2="188.75" y1="578.0811" y2="600.0811"/><polygon fill="#000000" points="184.75,590.0811,188.75,600.0811,192.75,590.0811,188.75,594.0811" style="stroke:#000000;stroke-width:1.0;"/><line style="stroke:#000000;stroke-width:1.0;" x1="345" x2="355.25" y1="578.0811" y2="578.0811"/><line style="stroke:#000000;stroke-width:1.0;" x1="355.25" x2="355.25" y1="578.0811" y2="600.0811"/><polygon fill="#000000" points="351.25,590.0811,355.25,600.0811,359.25,590.0811,355.25,594.0811" style="stroke:#000000;stroke-width:1.0;"/><line style="stroke:#000000;stroke-width:1.0;" x1="188.75" x2="188.75" y1="663.833" y2="681.833"/><line style="stroke:#000000;stroke-width:1.0;" x1="188.75" x2="260" y1="681.833" y2="681.833"/><polygon fill="#000000" points="250,677.833,260,681.833,250,685.833,254,681.833" style="stroke:#000000;stroke-width:1.0;"/><line style="stroke:#000000;stroke-width:1.0;" x1="355.25" x2="355.25" y1="634.665" y2="681.833"/><line style="stroke:#000000;stroke-width:1.0;" x1="355.25" x2="284" y1="681.833" y2="681.833"/><polygon fill="#000000" points="294,677.833,284,681.833,294,685.833,290,681.833" style="stroke:#000000;stroke-width:1.0;"/><line style="stroke:#000000;stroke-width:1.0;" x1="272" x2="272" y1="546.0811" y2="566.0811"/><polygon fill="#000000" points="268,556.0811,272,566.0811,276,556.0811,272,560.0811" style="stroke:#000000;stroke-width:1.0;"/><line style="stroke:#000000;stroke-width:1.0;" x1="215" x2="189.5" y1="725.833" y2="725.833"/><line style="stroke:#000000;stroke-width:1.0;" x1="189.5" x2="189.5" y1="725.833" y2="747.833"/><polygon fill="#000000" points="185.5,737.833,189.5,747.833,193.5,737.833,189.5,741.833" style="stroke:#000000;stroke-width:1.0;"/><line style="stroke:#000000;stroke-width:1.0;" x1="329" x2="354.5" y1="725.833" y2="725.833"/><line style="stroke:#000000;stroke-width:1.0;" x1="354.5" x2="354.5" y1="725.833" y2="747.833"/><polygon fill="#000000" points="350.5,737.833,354.5,747.833,358.5,737.833,354.5,741.833" style="stroke:#000000;stroke-width:1.0;"/><line style="stroke:#000000;stroke-width:1.0;" x1="189.5" x2="189.5" y1="811.585" y2="829.585"/><line style="stroke:#000000;stroke-width:1.0;" x1="189.5" x2="260" y1="829.585" y2="829.585"/><polygon fill="#000000" points="250,825.585,260,829.585,250,833.585,254,829.585" style="stroke:#000000;stroke-width:1.0;"/><line style="stroke:#000000;stroke-width:1.0;" x1="354.5" x2="354.5" y1="782.417" y2="829.585"/><line style="stroke:#000000;stroke-width:1.0;" x1="354.5" x2="284" y1="829.585" y2="829.585"/><polygon fill="#000000" points="294,825.585,284,829.585,294,833.585,290,829.585" style="stroke:#000000;stroke-width:1.0;"/><line style="stroke:#000000;stroke-width:1.0;" x1="272" x2="272" y1="693.833" y2="713.833"/><polygon fill="#000000" points="268,703.833,272,713.833,276,703.833,272,707.833" style="stroke:#000000;stroke-width:1.0;"/><line style="stroke:#000000;stroke-width:1.0;" x1="272" x2="272" y1="841.585" y2="861.585"/><polygon fill="#000000" points="268,851.585,272,861.585,276,851.585,272,855.585" style="stroke:#000000;stroke-width:1.0;"/><line style="stroke:#000000;stroke-width:1.0;" x1="272" x2="272" y1="939.9209" y2="983.0889"/><polygon fill="#000000" points="268,973.0889,272,983.0889,276,973.0889,272,977.0889" style="stroke:#000000;stroke-width:1.0;"/><!--SRC=[RLJBQXH15DtNLrntaq30rqf12Oc3OZGX2UZsJlUTwJBLTSkgwad6bL-Wegv445o8YE3IdH_Z5_W9dkhkFCJifhllFQywDLTo8wrGS6ozIKVM1uxSqeoheqNKpjTRwZJISMEpNFXUovmxbwVgyu5z8NJj-iLbFTdZkhP-GTUk6fDjTaAxNNRMow6gexsebQHK1lPiaFBUc9GvPcDk_VdqxYUjh-yer_IWvOMihvjzmGFWkqoXqQot-xdtNp3tM6FBhcZOiOic0nFpco6u5MtjRDw_Hrb9bk99iUp6aRB_-_j7h6zBbYeFkz2DtQdrDSrYUJ7OflIyuoYmXJWuhapNAxS-YqyshoWtKLAZhXwHuU0DeFSafW1mknJQqXZBJ_LWUC8na2tMYhWehMAYubOY4_k5av7XvaQbqKka7DcdUJ5Q40QALpz0iJjxLjGF9WRmNhuExmUOcVLG_OzACu6HezCnzQFHyrDVwnFw-7L8Y6qvCqaIbppIF1G9f4W9u8ugz42xI46HIZ8JhyGXH3snWsI2U6ePZrtfJW4i37PEauDMDJT5ftYUEQdlha4gpckoahHcYE3rsmVeE1i4Ez7-a5h2sRiHCGr-yR7LY9euNTWAuZGWsA8YtJRYaX3azS07HpO0OOJ5Hr_R-Q3gK1sMV2LqXwvUekZTQoZQh6iw6-nLtJi9NE8Vkawp5PK6sBcL6b-vHRIvps9kS-aXLKwuNxzCMZx5FfC6vhU_m0mUZRcqP_lf5Cm7Z2muqTRcDZhJ1jX5b6Q9q-t9SF-ERMxGDNORnnfTRIhLY2fmbeGgKskTiorw594Ixg86OxoY4_r5WAHIX5cte4TQG-P6lTORBiIflmgnbTe2RIXsAdOp2LSDfOog5DDBcxfoLVl3A9QeC8myJkO3pOrjT0s89PwfSEvGl9xhzylFTDwMuTea2cMMyDTXvrpbDCwTdn_-YDB_SOzZ-sTvK49LC5rLNUHgTQxkBm00]--></g></svg>